# Blender v2.74 (sub 0) OBJ File: 'pavillon.blend'
# www.blender.org
mtllib pavillon_uv_metal.mtl
o Cone
v -0.044038 6.656605 -4.910232
v 0.931413 6.656605 -4.814158
v 1.869379 6.656605 -4.529629
v 2.733813 6.656605 -4.067580
v 3.491495 6.656605 -3.445765
v 4.113310 6.656605 -2.688082
v 4.575359 6.656605 -1.823649
v 4.859888 6.656605 -0.885683
v 4.955962 6.656605 0.089768
v -0.044038 8.656605 0.089769
v 4.859888 6.656605 1.065220
v 4.575359 6.656605 2.003185
v 4.113310 6.656605 2.867620
v 3.491495 6.656605 3.625303
v 2.733813 6.656605 4.247117
v 1.869378 6.656605 4.709167
v 0.931412 6.656605 4.993695
v -0.044040 6.656605 5.089768
v -1.019492 6.656605 4.993694
v -1.957458 6.656605 4.709165
v -2.821892 6.656605 4.247115
v -3.579575 6.656605 3.625300
v -4.201388 6.656605 2.867617
v -4.663438 6.656605 2.003182
v -4.947966 6.656605 1.065216
v -5.044038 6.656605 0.089764
v -4.947964 6.656605 -0.885688
v -4.663434 6.656605 -1.823654
v -4.201383 6.656605 -2.688088
v -3.579568 6.656605 -3.445769
v -2.821884 6.656605 -4.067584
v -1.957449 6.656605 -4.529632
v -1.019482 6.656605 -4.814159
v 0.000000 0.000000 -1.000000
v 0.000000 8.000000 -1.000000
v 0.195090 0.000000 -0.980785
v 0.195090 8.000000 -0.980785
v 0.382683 0.000000 -0.923880
v 0.382683 8.000000 -0.923880
v 0.555570 0.000000 -0.831470
v 0.555570 8.000000 -0.831470
v 0.707107 0.000000 -0.707107
v 0.707107 8.000000 -0.707107
v 0.831470 0.000000 -0.555570
v 0.831470 8.000000 -0.555570
v 0.923880 0.000000 -0.382683
v 0.923880 8.000000 -0.382683
v 0.980785 0.000000 -0.195090
v 0.980785 8.000000 -0.195090
v 1.000000 0.000000 -0.000000
v 1.000000 8.000000 -0.000000
v 0.980785 0.000000 0.195090
v 0.980785 8.000000 0.195090
v 0.923880 0.000000 0.382683
v 0.923880 8.000000 0.382683
v 0.831470 0.000000 0.555570
v 0.831470 8.000000 0.555570
v 0.707107 0.000000 0.707107
v 0.707107 8.000000 0.707107
v 0.555570 0.000000 0.831470
v 0.555570 8.000000 0.831470
v 0.382683 0.000000 0.923880
v 0.382683 8.000000 0.923880
v 0.195090 0.000000 0.980785
v 0.195090 8.000000 0.980785
v -0.000000 0.000000 1.000000
v -0.000000 8.000000 1.000000
v -0.195091 0.000000 0.980785
v -0.195091 8.000000 0.980785
v -0.382684 0.000000 0.923879
v -0.382684 8.000000 0.923879
v -0.555571 0.000000 0.831469
v -0.555571 8.000000 0.831469
v -0.707107 0.000000 0.707106
v -0.707107 8.000000 0.707106
v -0.831470 0.000000 0.555570
v -0.831470 8.000000 0.555570
v -0.923880 0.000000 0.382683
v -0.923880 8.000000 0.382683
v -0.980785 0.000000 0.195089
v -0.980785 8.000000 0.195089
v -1.000000 0.000000 -0.000001
v -1.000000 8.000000 -0.000001
v -0.980785 0.000000 -0.195091
v -0.980785 8.000000 -0.195091
v -0.923879 0.000000 -0.382684
v -0.923879 8.000000 -0.382684
v -0.831469 0.000000 -0.555571
v -0.831469 8.000000 -0.555571
v -0.707106 0.000000 -0.707108
v -0.707106 8.000000 -0.707108
v -0.555569 0.000000 -0.831470
v -0.555569 8.000000 -0.831470
v -0.382682 0.000000 -0.923880
v -0.382682 8.000000 -0.923880
v -0.195089 0.000000 -0.980786
v -0.195089 8.000000 -0.980786
v -0.000000 0.000000 -0.000000
v -0.000000 0.000000 -6.382140
v -1.245094 0.000000 -6.259508
v -2.442339 0.000000 -5.896327
v -3.545727 0.000000 -5.306555
v -4.512855 0.000000 -4.512854
v -5.306556 0.000000 -3.545727
v -5.896328 0.000000 -2.442339
v -6.259508 0.000000 -1.245094
v -6.382139 0.000000 -0.000001
v -6.259508 0.000000 1.245093
v -5.896328 0.000000 2.442338
v -5.306556 0.000000 3.545726
v -4.512855 0.000000 4.512854
v -3.545727 0.000000 5.306555
v -2.442338 0.000000 5.896328
v -1.245092 0.000000 6.259508
v 0.000002 0.000000 6.382139
v 1.245096 0.000000 6.259508
v 2.442342 0.000000 5.896327
v 3.545730 0.000000 5.306553
v 4.512857 0.000000 4.512851
v 5.306557 0.000000 3.545723
v 5.896330 0.000000 2.442334
v 6.259510 0.000000 1.245088
v 6.382139 0.000000 -0.000006
v 6.259507 0.000000 -1.245100
v 5.896325 0.000000 -2.442346
v 5.306551 0.000000 -3.545733
v 4.512848 0.000000 -4.512859
v 3.545719 0.000000 -5.306560
v 2.442330 0.000000 -5.896332
v 1.245084 0.000000 -6.259510
vt 0.763591 0.004594
vt 0.806587 0.220747
vt 0.722248 0.017135
vt 0.155711 0.991213
vt 0.219686 0.780314
vt 0.198084 0.999641
vt 0.806587 0.000359
vt 0.780314 0.832986
vt 0.560987 0.811384
vt 0.780314 0.789782
vt 0.481074 0.565222
vt 0.524070 0.781375
vt 0.439731 0.577763
vt 0.524070 0.560987
vt 0.897255 0.221465
vt 0.897255 0.441853
vt 0.854259 0.225699
vt 0.853541 0.221465
vt 0.853541 0.441853
vt 0.810546 0.225699
vt 0.640433 0.216512
vt 0.683428 0.000359
vt 0.683428 0.220747
vt 0.599089 0.203971
vt 0.560987 0.183605
vt 0.780314 0.876907
vt 0.560987 0.855306
vt 0.780314 0.833704
vt 0.599089 0.459347
vt 0.683428 0.662959
vt 0.560987 0.479713
vt 0.640433 0.446805
vt 0.683428 0.442571
vt 0.770855 0.221465
vt 0.770855 0.441853
vt 0.727859 0.225699
vt 0.780314 0.920829
vt 0.560987 0.899227
vt 0.780314 0.877625
vt 0.725489 0.658724
vt 0.768485 0.442571
vt 0.768485 0.662959
vt 0.684146 0.646183
vt 0.892361 0.216512
vt 0.935357 0.000359
vt 0.935357 0.220747
vt 0.599089 0.238241
vt 0.683428 0.441853
vt 0.560987 0.258607
vt 0.640433 0.225699
vt 0.683428 0.221465
vt 0.895602 0.658724
vt 0.938598 0.442571
vt 0.938598 0.662959
vt 0.854259 0.646183
vt 0.848648 0.004594
vt 0.891643 0.220747
vt 0.807304 0.017135
vt 0.891643 0.000359
vt 0.684146 0.437618
vt 0.727141 0.221465
vt 0.727141 0.441853
vt 0.810546 0.658724
vt 0.853541 0.442571
vt 0.853541 0.662959
vt 0.769202 0.646183
vt 0.684146 0.037501
vt 0.241288 0.999641
vt 0.283661 0.991213
vt 0.323576 0.974679
vt 0.359499 0.950677
vt 0.390049 0.920127
vt 0.414051 0.884204
vt 0.430584 0.844289
vt 0.439013 0.801916
vt 0.439013 0.758712
vt 0.430584 0.716339
vt 0.414051 0.676424
vt 0.390049 0.640501
vt 0.359499 0.609952
vt 0.323576 0.585949
vt 0.283661 0.569416
vt 0.241288 0.560987
vt 0.198084 0.560987
vt 0.155710 0.569416
vt 0.115795 0.585949
vt 0.079873 0.609952
vt 0.049323 0.640501
vt 0.025321 0.676424
vt 0.008787 0.716339
vt 0.000359 0.758712
vt 0.000359 0.801916
vt 0.008788 0.844290
vt 0.025321 0.884205
vt 0.049324 0.920127
vt 0.079873 0.950677
vt 0.115796 0.974679
vt 0.913608 0.757897
vt 0.560987 0.757897
vt 0.560987 0.766496
vt 0.913608 0.766496
vt 0.560987 0.774765
vt 0.913608 0.774765
vt 0.560987 0.782385
vt 0.913608 0.782385
vt 0.560987 0.789065
vt 0.913608 0.789065
vt 0.560987 0.749298
vt 0.913608 0.749298
vt 0.560987 0.741029
vt 0.913608 0.741029
vt 0.560987 0.733409
vt 0.913608 0.733409
vt 0.560987 0.726730
vt 0.913608 0.726730
vt 0.913608 0.726012
vt 0.560987 0.726012
vt 0.560987 0.719333
vt 0.913608 0.719333
vt 0.560987 0.711712
vt 0.913608 0.711712
vt 0.560987 0.703443
vt 0.913608 0.703443
vt 0.560987 0.694844
vt 0.913608 0.694844
vt 0.560987 0.686245
vt 0.913608 0.686245
vt 0.560987 0.677977
vt 0.913608 0.677977
vt 0.560987 0.670356
vt 0.913608 0.670356
vt 0.560987 0.663677
vt 0.913608 0.663677
vt 0.517669 0.797996
vt 0.522469 0.805180
vt 0.525776 0.813163
vt 0.527462 0.821638
vt 0.527462 0.830279
vt 0.525776 0.838753
vt 0.522469 0.846736
vt 0.517669 0.853921
vt 0.511559 0.860031
vt 0.504374 0.864831
vt 0.496391 0.868138
vt 0.487916 0.869824
vt 0.479276 0.869824
vt 0.470801 0.868138
vt 0.462818 0.864831
vt 0.455633 0.860031
vt 0.449524 0.853921
vt 0.444723 0.846736
vt 0.441416 0.838753
vt 0.439731 0.830279
vt 0.439731 0.821638
vt 0.441416 0.813163
vt 0.444723 0.805180
vt 0.449524 0.797996
vt 0.455634 0.791886
vt 0.462818 0.787085
vt 0.470801 0.783779
vt 0.479276 0.782093
vt 0.487917 0.782093
vt 0.496391 0.783779
vt 0.504374 0.787085
vt 0.511559 0.791886
vt 0.804119 0.794775
vt 0.796935 0.799575
vt 0.790825 0.805685
vt 0.786024 0.812870
vt 0.782717 0.820853
vt 0.781032 0.829327
vt 0.781032 0.837968
vt 0.782717 0.846443
vt 0.786024 0.854426
vt 0.790825 0.861610
vt 0.796934 0.867720
vt 0.804119 0.872521
vt 0.812102 0.875827
vt 0.820577 0.877513
vt 0.829217 0.877513
vt 0.837692 0.875828
vt 0.845675 0.872521
vt 0.852860 0.867720
vt 0.858970 0.861610
vt 0.863770 0.854426
vt 0.867077 0.846443
vt 0.868763 0.837968
vt 0.868763 0.829327
vt 0.867077 0.820853
vt 0.863770 0.812870
vt 0.858970 0.805685
vt 0.852860 0.799575
vt 0.845675 0.794775
vt 0.837692 0.791468
vt 0.829217 0.789782
vt 0.820577 0.789782
vt 0.812102 0.791468
vt 0.280314 0.280314
vt 0.307887 0.560269
vt 0.252741 0.560269
vt 0.198654 0.549511
vt 0.147706 0.528407
vt 0.101853 0.497770
vt 0.062859 0.458775
vt 0.032221 0.412923
vt 0.011117 0.361974
vt 0.000359 0.307887
vt 0.000359 0.252741
vt 0.011117 0.198654
vt 0.032221 0.147706
vt 0.062858 0.101853
vt 0.101853 0.062859
vt 0.147705 0.032221
vt 0.198654 0.011117
vt 0.252741 0.000359
vt 0.307887 0.000359
vt 0.361974 0.011117
vt 0.412923 0.032221
vt 0.458775 0.062859
vt 0.497770 0.101853
vt 0.528407 0.147706
vt 0.549511 0.198654
vt 0.560269 0.252741
vt 0.560269 0.307887
vt 0.549511 0.361974
vt 0.528407 0.412923
vt 0.497769 0.458775
vt 0.458775 0.497770
vt 0.412923 0.528407
vt 0.361974 0.549511
vn -0.108300 0.927900 -0.356900
vn 0.036600 0.927900 -0.371100
vn -0.175800 0.927900 -0.328900
vn -0.236600 0.927900 -0.288300
vn -0.288300 0.927900 -0.236600
vn -0.328900 0.927900 -0.175800
vn -0.356900 0.927900 -0.108300
vn -0.371100 0.927900 -0.036600
vn -0.371100 0.927900 0.036600
vn -0.356900 0.927900 0.108300
vn -0.328900 0.927900 0.175800
vn -0.288300 0.927900 0.236600
vn -0.236600 0.927900 0.288300
vn -0.175800 0.927900 0.328900
vn -0.108300 0.927900 0.356900
vn -0.036600 0.927900 0.371100
vn 0.036600 0.927900 0.371100
vn 0.108300 0.927900 0.356900
vn 0.175800 0.927900 0.328900
vn 0.236600 0.927900 0.288300
vn 0.288300 0.927900 0.236600
vn 0.328900 0.927900 0.175800
vn 0.356900 0.927900 0.108300
vn 0.371100 0.927900 0.036600
vn 0.371100 0.927900 -0.036600
vn 0.356900 0.927900 -0.108300
vn 0.328900 0.927900 -0.175800
vn 0.288300 0.927900 -0.236600
vn 0.236600 0.927900 -0.288300
vn 0.175800 0.927900 -0.328900
vn -0.036600 0.927900 -0.371100
vn 0.108300 0.927900 -0.356900
vn 0.000000 -1.000000 0.000000
vn 0.098000 0.000000 -0.995200
vn 0.290300 0.000000 -0.956900
vn 0.471400 0.000000 -0.881900
vn 0.634400 0.000000 -0.773000
vn 0.773000 0.000000 -0.634400
vn 0.881900 0.000000 -0.471400
vn 0.956900 0.000000 -0.290300
vn 0.995200 0.000000 -0.098000
vn 0.995200 0.000000 0.098000
vn 0.956900 0.000000 0.290300
vn 0.881900 0.000000 0.471400
vn 0.773000 0.000000 0.634400
vn 0.634400 0.000000 0.773000
vn 0.471400 0.000000 0.881900
vn 0.290300 0.000000 0.956900
vn 0.098000 0.000000 0.995200
vn -0.098000 0.000000 0.995200
vn -0.290300 0.000000 0.956900
vn -0.471400 0.000000 0.881900
vn -0.634400 0.000000 0.773000
vn -0.773000 0.000000 0.634400
vn -0.881900 0.000000 0.471400
vn -0.956900 0.000000 0.290300
vn -0.995200 0.000000 0.098000
vn -0.995200 0.000000 -0.098000
vn -0.956900 0.000000 -0.290300
vn -0.881900 0.000000 -0.471400
vn -0.773000 0.000000 -0.634400
vn -0.634400 0.000000 -0.773000
vn -0.471400 0.000000 -0.881900
vn 0.000000 1.000000 0.000000
vn -0.098000 0.000000 -0.995200
vn -0.290300 0.000000 -0.956900
usemtl None
s off
f 32/1/1 10/2/1 33/3/1
f 1/4/2 10/5/2 2/6/2
f 31/7/3 10/2/3 32/1/3
f 30/8/4 10/9/4 31/10/4
f 29/11/5 10/12/5 30/13/5
f 28/14/6 10/12/6 29/11/6
f 27/15/7 10/16/7 28/17/7
f 26/18/8 10/19/8 27/20/8
f 25/21/9 10/22/9 26/23/9
f 24/24/10 10/22/10 25/21/10
f 23/25/11 10/22/11 24/24/11
f 22/26/12 10/27/12 23/28/12
f 21/29/13 10/30/13 22/31/13
f 20/32/14 10/30/14 21/29/14
f 19/33/15 10/30/15 20/32/15
f 18/34/16 10/35/16 19/36/16
f 17/37/17 10/38/17 18/39/17
f 16/40/18 10/41/18 17/42/18
f 15/43/19 10/41/19 16/40/19
f 14/44/20 10/45/20 15/46/20
f 13/47/21 10/48/21 14/49/21
f 12/50/22 10/48/22 13/47/22
f 11/51/23 10/48/23 12/50/23
f 9/52/24 10/53/24 11/54/24
f 8/55/25 10/53/25 9/52/25
f 7/56/26 10/57/26 8/58/26
f 6/59/27 10/57/27 7/56/27
f 5/60/28 10/61/28 6/62/28
f 4/63/29 10/64/29 5/65/29
f 3/66/30 10/64/30 4/63/30
f 33/3/31 10/2/31 1/67/31
f 2/6/32 10/5/32 3/68/32
f 1/4/33 2/6/33 3/68/33 4/69/33 5/70/33 6/71/33 7/72/33 8/73/33 9/74/33 11/75/33 12/76/33 13/77/33 14/78/33 15/79/33 16/80/33 17/81/33 18/82/33 19/83/33 20/84/33 21/85/33 22/86/33 23/87/33 24/88/33 25/89/33 26/90/33 27/91/33 28/92/33 29/93/33 30/94/33 31/95/33 32/96/33 33/97/33
f 34/98/34 35/99/34 37/100/34 36/101/34
f 36/101/35 37/100/35 39/102/35 38/103/35
f 38/103/36 39/102/36 41/104/36 40/105/36
f 40/105/37 41/104/37 43/106/37 42/107/37
f 42/107/38 43/106/38 45/104/38 44/105/38
f 44/105/39 45/104/39 47/102/39 46/103/39
f 46/103/40 47/102/40 49/100/40 48/101/40
f 48/101/41 49/100/41 51/99/41 50/98/41
f 50/98/42 51/99/42 53/108/42 52/109/42
f 52/109/43 53/108/43 55/110/43 54/111/43
f 54/111/44 55/110/44 57/112/44 56/113/44
f 56/113/45 57/112/45 59/114/45 58/115/45
f 58/116/46 59/117/46 61/118/46 60/119/46
f 60/119/47 61/118/47 63/120/47 62/121/47
f 62/121/48 63/120/48 65/122/48 64/123/48
f 64/123/49 65/122/49 67/124/49 66/125/49
f 66/125/50 67/124/50 69/126/50 68/127/50
f 68/127/51 69/126/51 71/128/51 70/129/51
f 70/129/52 71/128/52 73/130/52 72/131/52
f 72/131/53 73/130/53 75/132/53 74/133/53
f 74/133/54 75/132/54 77/130/54 76/131/54
f 76/131/55 77/130/55 79/128/55 78/129/55
f 78/129/56 79/128/56 81/126/56 80/127/56
f 80/127/57 81/126/57 83/124/57 82/125/57
f 82/125/58 83/124/58 85/122/58 84/123/58
f 84/123/59 85/122/59 87/120/59 86/121/59
f 86/121/60 87/120/60 89/118/60 88/119/60
f 88/119/61 89/118/61 91/117/61 90/116/61
f 90/115/62 91/114/62 93/112/62 92/113/62
f 92/113/63 93/112/63 95/110/63 94/111/63
f 37/134/64 35/135/64 97/136/64 95/137/64 93/138/64 91/139/64 89/140/64 87/141/64 85/142/64 83/143/64 81/144/64 79/145/64 77/146/64 75/147/64 73/148/64 71/149/64 69/150/64 67/151/64 65/152/64 63/153/64 61/154/64 59/155/64 57/156/64 55/157/64 53/158/64 51/159/64 49/160/64 47/161/64 45/162/64 43/163/64 41/164/64 39/165/64
f 96/109/65 97/108/65 35/99/65 34/98/65
f 94/111/66 95/110/66 97/108/66 96/109/66
f 34/166/33 36/167/33 38/168/33 40/169/33 42/170/33 44/171/33 46/172/33 48/173/33 50/174/33 52/175/33 54/176/33 56/177/33 58/178/33 60/179/33 62/180/33 64/181/33 66/182/33 68/183/33 70/184/33 72/185/33 74/186/33 76/187/33 78/188/33 80/189/33 82/190/33 84/191/33 86/192/33 88/193/33 90/194/33 92/195/33 94/196/33 96/197/33
s 1
f 98/198/64 99/199/64 100/200/64
f 98/198/64 100/200/64 101/201/64
f 98/198/64 101/201/64 102/202/64
f 98/198/64 102/202/64 103/203/64
f 98/198/64 103/203/64 104/204/64
f 98/198/64 104/204/64 105/205/64
f 98/198/64 105/205/64 106/206/64
f 98/198/64 106/206/64 107/207/64
f 98/198/64 107/207/64 108/208/64
f 98/198/64 108/208/64 109/209/64
f 98/198/64 109/209/64 110/210/64
f 98/198/64 110/210/64 111/211/64
f 98/198/64 111/211/64 112/212/64
f 98/198/64 112/212/64 113/213/64
f 98/198/64 113/213/64 114/214/64
f 98/198/64 114/214/64 115/215/64
f 98/198/64 115/215/64 116/216/64
f 98/198/64 116/216/64 117/217/64
f 98/198/64 117/217/64 118/218/64
f 98/198/64 118/218/64 119/219/64
f 98/198/64 119/219/64 120/220/64
f 98/198/64 120/220/64 121/221/64
f 98/198/64 121/221/64 122/222/64
f 98/198/64 122/222/64 123/223/64
f 98/198/64 123/223/64 124/224/64
f 98/198/64 124/224/64 125/225/64
f 98/198/64 125/225/64 126/226/64
f 98/198/64 126/226/64 127/227/64
f 98/198/64 127/227/64 128/228/64
f 98/198/64 128/228/64 129/229/64
f 98/198/64 129/229/64 130/230/64
f 98/198/64 130/230/64 99/199/64
